<svg xmlns="http://www.w3.org/2000/svg" width="100" height="100" viewBox="0 0 100 100">
  <rect width="100" height="100" rx="22" fill="#153a5c" />
  <g stroke="#ffffff" stroke-width="4" stroke-linecap="round">
    <line x1="42" y1="24" x2="42" y2="34" />
    <line x1="50" y1="24" x2="50" y2="34" />
    <line x1="58" y1="24" x2="58" y2="34" />
    <line x1="42" y1="66" x2="42" y2="76" />
    <line x1="50" y1="66" x2="50" y2="76" />
    <line x1="58" y1="66" x2="58" y2="76" />
    <line x1="24" y1="42" x2="34" y2="42" />
    <line x1="24" y1="50" x2="34" y2="50" />
    <line x1="24" y1="58" x2="34" y2="58" />
    <line x1="66" y1="42" x2="76" y2="42" />
    <line x1="66" y1="50" x2="76" y2="50" />
    <line x1="66" y1="58" x2="76" y2="58" />
  </g>
  <rect x="34" y="34" width="32" height="32" rx="6" fill="none" stroke="#ffffff" stroke-width="4" />
  <rect x="44" y="44" width="12" height="12" rx="2" fill="#ffffff" />
</svg>
